# AST/ASF file generated using VICON BodyLanguage
# -----------------------------------------------
:version 1.10
:name VICON
:units
  mass 1.0
  length 0.45
  angle deg
:documentation
   .ast/.asf automatically generated from VICON data using
   VICON BodyBuilder and BodyLanguage model FoxedUp or BRILLIANT.MOD
:root
   order TX TY TZ RX RY RZ
   axis XYZ
   position 0 0 0  
   orientation 0 0 0 
:bonedata
  begin
     id 1 
     name lhipjoint
     direction 0.700308 -0.549349 0.455834 
     length 2.59063 
     axis 0 0 0  XYZ
  end
  begin
     id 2 
     name lfemur
     direction 0.34202 -0.939693 0  
     length 6.31066  
     axis 0 0 20  XYZ
    dof rx ry rz
    limits (-160.0 20.0)
           (-70.0 70.0)
           (-60.0 70.0)
  end
  begin
     id 3 
     name ltibia
     direction 0.34202 -0.939693 0   
     length 7.36093   
     axis 0 0 20   XYZ
    dof rx
    limits (-10.0 170.0)
  end
  begin
     id 4 
     name lfoot
     direction 0.0905332 -0.248738 0.96433   
     length 2.0233   
     axis -90 7.62852e-016 20   XYZ
    dof rx rz
    limits (-45.0 90.0)
           (-70.0 20.0)
  end
  begin
     id 5 
     name ltoes
     direction 1.53573e-011 -4.21855e-011 1   
     length 1.01524   
     axis -90 7.62852e-016 20   XYZ
    dof rx
    limits (-90.0 20.0)
  end
  begin
     id 6 
     name rhipjoint
     direction -0.61416 -0.607328 0.503944   
     length 2.34332  
     axis 0 0 0  XYZ 
  end
  begin
     id 7 
     name rfemur
     direction -0.34202 -0.939693 0   
     length 6.58548   
     axis 0 0 -20   XYZ
    dof rx ry rz
    limits (-160.0 20.0)
           (-70.0 70.0)
           (-70.0 60.0)
  end
  begin
     id 8 
     name rtibia
     direction -0.34202 -0.939693 0   
     length 7.20707   
     axis 0 0 -20   XYZ
    dof rx
    limits (-10.0 170.0)
 end
 begin
     id 9 
     name rfoot
     direction -0.136772 -0.375778 0.916561   
     length 1.92184  
     axis -90 -7.62852e-016 -20   XYZ
    dof rx rz
    limits (-45.0 90.0)
           (-20.0 70.0)
  end
  begin
     id 10 
     name rtoes
     direction -1.53535e-011 -4.21828e-011 1   
     length 0.951089   
     axis -90 -7.62852e-016 -20   XYZ
    dof rx
    limits (-90.0 20.0)
  end
  begin
     id 11 
     name lowerback
     direction -0.0444974 0.988086 -0.147332   
     length 1.9609   
     axis 0 0 0   XYZ
    dof rx ry rz
    limits (-20.0 45.0)
           (-30.0 30.0)
           (-30.0 30.0)
  end
  begin
     id 12 
     name upperback
     direction 0.00613146 0.999513 0.0306081   
     length 1.94944   
     axis 0 0 0   XYZ
    dof rx ry rz
    limits (-20.0 45.0)
           (-30.0 30.0)
           (-30.0 30.0)
  end
  begin
     id 13 
     name thorax
     direction 0.0254621 0.994518 0.101418   
     length 2.0119   
     axis 0 0 0   XYZ
    dof rx ry rz
    limits (-20.0 45.0)
           (-30.0 30.0)
           (-30.0 30.0)
  end
  begin
     id 14 
     name lowerneck
     direction 0.0168698 0.977854 0.208608   
     length 1.6375   
     axis 0 0 0   XYZ
    dof rx ry rz
    limits (-20.0 45.0)
           (-30.0 30.0)
           (-30.0 30.0)
  end
  begin
     id 15 
     name upperneck
     direction -0.0283988 0.989338 -0.142843   
     length 1.6851   
     axis 0 0 0   XYZ
    dof rx ry rz
    limits (-20.0 45.0)
           (-30.0 30.0)
           (-30.0 30.0)
  end
  begin
     id 16
     name head
     direction -0.0129422 0.99741 -0.0707489  
     length 1.69029  
     axis 0 0 0   XYZ
    dof rx ry rz
    limits (-20.0 45.0)
           (-30.0 30.0)
           (-30.0 30.0)
  end
  begin
     id 17 
     name lclavicle
     direction 0.820295 0.564628 -0.0911715  
     length 3.16484  
     axis 0 0 0   XYZ
    dof ry rz
    limits (-20.0 10.0)
           (0.0 20.0)
  end
  begin
     id 18 
     name lhumerus
     direction 1 -4.48969e-011 1.00186e-027   
     length 5.17853   
     axis 180 -30 -90   XYZ
    dof rx ry rz
    limits (-60.0 90.0)
           (-90.0 90.0)
           (-90.0 90.0)
  end
  begin
     id 19
     name lradius
     direction 1 -4.48966e-011 -1.52922e-027   
     length 3.40399   
     axis 180 -30 -90   XYZ
    dof rx
    limits (-10.0 170.0)
  end
  begin
     id 20
     name lwrist
     direction 1 -4.48981e-011 -3.80893e-027   
     length 1.70199   
     axis 1.1049e-015 90 90   XYZ
    dof ry
    limits (-180.0 0.0)
 end
  begin
     id 21 
     name lhand
     direction 1 -4.48957e-011 -7.61786e-027   
     length 0.708964   
     axis 4.86085e-015 90 90   XYZ
    dof rx rz
    limits (-90.0 90.0)
           (-45.0 45.0)
  end
  begin
     id 22 
     name lfingers
     direction 1 -4.48929e-011 -1.52357e-026   
     length 0.571585   
     axis 9.7217e-015 90 90   XYZ
    dof rx
    limits (0.0 90.0)
  end
  begin
     id 23
     name lthumb
     direction 0.707107 -6.34905e-011 0.707107   
     length 0.820685   
     axis -90 45 2.85299e-015   XYZ
    dof rx rz
    limits (-45.0 45.0)
           (-45.0 45.0)
  end
  begin
     id 24 
     name rclavicle
     direction -0.858602 0.463947 -0.218075   
     length 3.35137  
     axis 0 0 0   XYZ 
    dof ry rz
    limits (-10.0 20.0)
           (-20.0 0.0)
  end
  begin
     id 25 
     name rhumerus
     direction -1 -4.48969e-011 -1.98511e-027  
     length 5.42351   
     axis 180 30 90   XYZ
    dof rx ry rz
    limits (-90.0 60.0)
           (-90.0 90.0)
           (-90.0 90.0)
  end
  begin
     id 26 
     name rradius
     direction -1 -4.48961e-011 -2.82624e-027   
     length 3.42066   
     axis 180 30 90   XYZ
    dof rx
    limits (-10.0 170.0)
  end
  begin
     id 27 
     name rwrist
     direction -1 -4.48966e-011 -3.80893e-027   
     length 1.71033   
     axis 1.1049e-015 -90 -90   XYZ
    dof ry
    limits (-180.0 0.0)
  end
  begin
     id 28
     name rhand
     direction -1 -4.48964e-011 -7.61786e-027   
     length 0.743608   
     axis 4.86085e-015 -90 -90   XYZ
    dof rx rz
    limits (-90.0 90.0)
           (-45.0 45.0)
  end
  begin
     id 29
     name rfingers
     direction -1 -4.48961e-011 -1.52357e-026   
     length 0.599516   
     axis 9.7217e-015 -90 -90   XYZ
    dof rx
    limits (0.0 90.0)
  end
  begin
     id 30
     name rthumb
     direction -0.707107 -6.34913e-011 0.707107   
     length 0.860789   
     axis -90 -45 -2.85299e-015   XYZ
    dof rx rz
    limits (-45.0 45.0)
           (-45.0 45.0)
  end
:hierarchy
  begin
    root lhipjoint rhipjoint lowerback
    lhipjoint lfemur
    lfemur ltibia
    ltibia lfoot
    lfoot ltoes
    rhipjoint rfemur
    rfemur rtibia
    rtibia rfoot
    rfoot rtoes
    lowerback upperback
    upperback thorax
    thorax lowerneck lclavicle rclavicle
    lowerneck upperneck
    upperneck head
    lclavicle lhumerus
    lhumerus lradius
    lradius lwrist
    lwrist lhand lthumb
    lhand lfingers
    rclavicle rhumerus
    rhumerus rradius
    rradius rwrist
    rwrist rhand rthumb
    rhand rfingers
  end

#!OML:ASF E:\mmandel\Project 1\Capture day 1\Session 2\Subject.ASF
:FULLY-SPECIFIED
:DEGREES
204
root -3.44879 2.01281 -0.843626 221.169 81.0303 -56.1154
lowerback 36.6877 -1.61463 5.71807
upperback 17.4652 2.67194 4.39099
thorax 0.946872 2.86034 0.837543
lowerneck -5.52425 -0.578676 5.32906
upperneck 45.4915 -0.450853 5.21486
head 17.9606 2.84965 1.89138
rclavicle -1.90833e-014 -6.75868e-014
rhumerus 3.78118 23.5838 -63.1765
rradius 32.358
rwrist 7.31805
rhand 5.68983 32.7858
rfingers 7.12502
rthumb 31.0277 5.38963
lclavicle -1.90833e-014 -6.75868e-014
lhumerus 40.4393 -42.1283 27.3035
lradius 46.4809
lwrist 16.1766
lhand -8.91922 -26.5678
lfingers 7.12502
lthumb 17.0242 2.70623
rfemur -36.2882 -0.420707 31.1521
rtibia 63.878
rfoot 12.5796 -8.03344
rtoes -12.9222
lfemur -40.3393 25.8282 8.45664
ltibia 65.885
lfoot 12.9989 -9.65271
ltoes 3.41523
205
root -3.45028 2.04094 -0.845709 221.964 81.6488 -56.6752
lowerback 35.3434 -1.27743 5.30376
upperback 17.5121 2.75428 4.20238
thorax 1.42928 2.85173 0.855647
lowerneck -5.57704 -0.549247 5.22669
upperneck 45.5621 -0.457628 5.41774
head 18.0221 2.85786 2.01212
rclavicle 5.68524e-014 3.02153e-014
rhumerus 3.61821 23.5642 -63.0235
rradius 32.7322
rwrist 7.10661
rhand 5.47947 32.9037
rfingers 7.12502
rthumb 30.8272 5.46939
lclavicle 5.68524e-014 3.02153e-014
lhumerus 40.1235 -42.068 27.1085
lradius 47.1229
lwrist 16.6488
lhand -8.53902 -26.1568
lfingers 7.12502
lthumb 17.3901 3.08525
rfemur -37.7802 -0.137187 30.7459
rtibia 64.2689
rfoot 12.6218 -8.33995
rtoes -11.5045
lfemur -41.483 26.3039 7.46364
ltibia 65.9288
lfoot 12.8366 -9.68675
ltoes 1.31149
206
root -3.4479 2.01455 -0.836378 217.472 81.2547 -59.6932
lowerback 38.5169 -1.65081 5.1371
upperback 17.3789 2.68321 4.20047
thorax 0.257127 2.85965 0.894728
lowerneck -5.65241 -0.630795 5.24144
upperneck 45.597 -0.594228 5.40017
head 18.0664 2.79918 1.98313
rclavicle 7.95139e-015 2.70347e-014
rhumerus 3.34187 23.615 -62.8334
rradius 33.1179
rwrist 6.81381
rhand 5.34667 33.0603
rfingers 7.12502
rthumb 30.7006 5.60216
lclavicle 7.95139e-015 2.70347e-014
lhumerus 39.8895 -42.2214 26.6622
lradius 47.8978
lwrist 16.8964
lhand -8.9 -26.0814
lfingers 7.12502
lthumb 17.0427 3.19106
rfemur -36.1634 -1.37715 30.6326
rtibia 64.4559
rfoot 12.5969 -8.38946
rtoes -10.9169
lfemur -40.2811 25.0158 7.7131
ltibia 65.8692
lfoot 12.8461 -10.0469
ltoes 0.486964
207
root -3.44138 2.0176 -0.8366 216.925 81.5413 -60.3687
lowerback 39.038 -1.57001 4.89832
upperback 17.3196 2.77229 4.03717
thorax 0.184049 2.90451 0.844541
lowerneck -5.70061 -0.656168 5.36429
upperneck 45.5754 -0.667333 5.38899
head 18.0687 2.7824 1.94199
rclavicle 1.70955e-014 5.725e-014
rhumerus 3.05825 23.7313 -62.6108
rradius 33.571
rwrist 6.33511
rhand 5.27995 33.0917
rfingers 7.12502
rthumb 30.637 5.62166
lclavicle 1.70955e-014 5.725e-014
lhumerus 39.5759 -42.2914 26.4428
lradius 48.5123
lwrist 16.7474
lhand -9.44845 -26.1906
lfingers 7.12502
lthumb 16.5147 3.1266
rfemur -36.3177 -1.52703 30.3998
rtibia 64.7247
rfoot 12.7893 -8.30842
rtoes -11.028
lfemur -40.3065 24.9851 7.40582
ltibia 65.8977
lfoot 13.0145 -10.0565
ltoes 1.15424
208
root -3.4303 2.02605 -0.84025 219.24 81.2221 -58.6819
lowerback 38.9041 -1.66707 5.32044
upperback 17.2984 2.78661 4.07898
thorax 0.221847 2.93265 0.672053
lowerneck -5.84706 -0.635495 5.45273
upperneck 45.6516 -0.671019 5.40752
head 18.1588 2.79916 1.9429
rclavicle -3.61788e-014 -4.77083e-014
rhumerus 2.79417 23.6763 -62.3962
rradius 34.0623
rwrist 5.934
rhand 5.28193 32.994
rfingers 7.12502
rthumb 30.6388 5.52431
lclavicle -3.61788e-014 -4.77083e-014
lhumerus 39.2048 -42.2385 26.3285
lradius 48.978
lwrist 16.8065
lhand -9.6189 -26.3868
lfingers 7.12502
lthumb 16.3506 2.94392
rfemur -36.995 -1.71779 30.8824
rtibia 64.9118
rfoot 12.8458 -8.18355
rtoes -12.1362
lfemur -41.1425 25.0557 7.56492
ltibia 66.0294
lfoot 13.2772 -10.0365
ltoes 1.30406
209
root -3.41868 2.03447 -0.834414 218.586 81.2285 -59.7797
lowerback 38.8997 -1.60986 5.14004
upperback 17.2912 2.79296 4.08122
thorax 0.205163 2.91995 0.762954
lowerneck -6.06311 -0.725398 5.4226
upperneck 45.9048 -0.815095 5.41976
head 18.3823 2.75152 1.95812
rclavicle 2.78299e-015 -3.18055e-015
rhumerus 2.46199 23.5577 -62.2747
rradius 34.4867
rwrist 5.61267
rhand 5.27139 32.7936
rfingers 7.12502
rthumb 30.6288 5.32206
lclavicle 2.78299e-015 -3.18055e-015
lhumerus 38.8143 -42.3524 26.0908
lradius 49.4498
lwrist 17.2095
lhand -9.8321 -26.8239
lfingers 7.12502
lthumb 16.1453 2.52363
rfemur -37.4831 -1.96312 30.8101
rtibia 65.1714
rfoot 11.1139 -8.10844
rtoes -11.8233
lfemur -41.6503 24.9941 7.22018
ltibia 66.1436
lfoot 13.4098 -10.193
ltoes 0.232414
210
root -3.41598 2.05341 -0.826669 216.526 81.3293 -62.6623
lowerback 38.2656 -1.49021 4.77257
upperback 17.3729 2.71501 4.02986
thorax 0.317073 2.84441 0.895267
lowerneck -6.06056 -0.816569 5.36609
upperneck 45.9739 -1.00337 5.58141
head 18.4336 2.69022 2.02307
rclavicle -2.50469e-014 -1.43125e-014
rhumerus 2.04388 23.3205 -62.307
rradius 34.9506
rwrist 5.29947
rhand 5.25203 32.6208
rfingers 7.12502
rthumb 30.6103 5.14574
lclavicle -2.50469e-014 -1.43125e-014
lhumerus 38.1962 -42.2878 26.3332
lradius 49.9784
lwrist 17.3164
lhand -9.74518 -26.8648
lfingers 7.12502
lthumb 16.229 2.47592
rfemur -38.345 -2.25936 30.4185
rtibia 65.4075
rfoot 9.6892 -7.88997
rtoes -10.9728
lfemur -42.5526 24.8913 6.40866
ltibia 66.2254
lfoot 13.638 -10.1062
ltoes 0.848696
